<svg width="40" height="40" viewBox="0 0 40 40" fill="none" xmlns="http://www.w3.org/2000/svg">
<rect width="40" height="40" rx="20" fill="url(#paint0_linear_627_384)"/>
<mask id="path-2-outside-1_627_384" maskUnits="userSpaceOnUse" x="17.6331" y="9.92502" width="11" height="10" fill="black">
<rect fill="white" x="17.6331" y="9.92502" width="11" height="10"/>
<path d="M19.0091 19.0235C19.1002 19.0236 19.1881 18.9905 19.2566 18.9305L27.7419 11.489L27.247 10.925L18.7617 18.3658C18.7041 18.416 18.6631 18.4826 18.6444 18.5568C18.6257 18.6309 18.6302 18.709 18.6571 18.7806C18.684 18.8522 18.7321 18.9138 18.7951 18.9572C18.858 19.0006 18.9327 19.0238 19.0091 19.0235V19.0235Z"/>
</mask>
<path d="M19.0091 19.0235C19.1002 19.0236 19.1881 18.9905 19.2566 18.9305L27.7419 11.489L27.247 10.925L18.7617 18.3658C18.7041 18.416 18.6631 18.4826 18.6444 18.5568C18.6257 18.6309 18.6302 18.709 18.6571 18.7806C18.684 18.8522 18.7321 18.9138 18.7951 18.9572C18.858 19.0006 18.9327 19.0238 19.0091 19.0235V19.0235Z" fill="#212121"/>
<path d="M19.0091 19.0235C19.1002 19.0236 19.1881 18.9905 19.2566 18.9305L27.7419 11.489L27.247 10.925L18.7617 18.3658C18.7041 18.416 18.6631 18.4826 18.6444 18.5568C18.6257 18.6309 18.6302 18.709 18.6571 18.7806C18.684 18.8522 18.7321 18.9138 18.7951 18.9572C18.858 19.0006 18.9327 19.0238 19.0091 19.0235V19.0235Z" stroke="#212121" stroke-width="0.2" mask="url(#path-2-outside-1_627_384)"/>
<mask id="path-3-outside-2_627_384" maskUnits="userSpaceOnUse" x="7" y="7" width="26" height="26" fill="black">
<rect fill="white" x="7" y="7" width="26" height="26"/>
<path d="M15.6388 32C20.244 32 22.9957 28.3775 22.9957 24.875C22.9957 23.8655 22.7542 22.7533 22.3973 22.031L25.7879 20.3353C25.8501 20.3041 25.9024 20.2562 25.9389 20.197C25.9755 20.1378 25.9948 20.0696 25.9948 20V17H28.2442L28.3289 16.9955C28.8282 16.9618 28.9775 16.8027 28.9939 16.25V13.25H31.2433C31.34 13.25 31.4068 13.2605 31.4517 13.2672C31.5425 13.2815 31.7119 13.3078 31.8589 13.1758C32.0103 13.0408 32.0036 12.8697 31.9976 12.719C31.9961 12.665 31.9931 12.5938 31.9931 12.5V9.10175C31.9929 8.80961 31.8768 8.52949 31.6703 8.32291C31.4637 8.11634 31.1837 8.0002 30.8917 8H27.9862C27.7191 8.00056 27.4611 8.09749 27.2597 8.273L17.3723 16.943C16.8857 16.8455 16.1502 16.7188 15.638 16.7188C11.4265 16.7188 8 20.1463 8 24.359C8 28.5718 11.4265 32 15.6388 32ZM15.6388 17.4688C16.0144 17.4688 16.6578 17.5588 17.4038 17.7148C17.4606 17.727 17.5196 17.7257 17.5758 17.711C17.6321 17.6963 17.6841 17.6685 17.7277 17.63L27.7531 8.8385C27.8175 8.78179 27.9004 8.75035 27.9862 8.75H30.8917C31.0858 8.75 31.2433 8.9075 31.2433 9.10175V12.5H28.6191C28.5196 12.5 28.4243 12.5395 28.354 12.6098C28.2837 12.6802 28.2442 12.7755 28.2442 12.875V16.25H25.6199C25.5205 16.25 25.4251 16.2895 25.3548 16.3598C25.2845 16.4302 25.245 16.5255 25.245 16.625V19.7682L21.703 21.5397C21.6544 21.564 21.6117 21.5986 21.5777 21.6411C21.5438 21.6835 21.5195 21.7329 21.5065 21.7857C21.4935 21.8385 21.4922 21.8935 21.5025 21.9468C21.5129 22.0002 21.5348 22.0507 21.5666 22.0947C21.8965 22.55 22.2459 23.6802 22.2459 24.875C22.2459 28.0085 19.7746 31.25 15.6388 31.25C11.8404 31.25 8.74978 28.1585 8.74978 24.359C8.74978 20.5595 11.8404 17.4688 15.6388 17.4688V17.4688Z"/>
</mask>
<path d="M15.6388 32C20.244 32 22.9957 28.3775 22.9957 24.875C22.9957 23.8655 22.7542 22.7533 22.3973 22.031L25.7879 20.3353C25.8501 20.3041 25.9024 20.2562 25.9389 20.197C25.9755 20.1378 25.9948 20.0696 25.9948 20V17H28.2442L28.3289 16.9955C28.8282 16.9618 28.9775 16.8027 28.9939 16.25V13.25H31.2433C31.34 13.25 31.4068 13.2605 31.4517 13.2672C31.5425 13.2815 31.7119 13.3078 31.8589 13.1758C32.0103 13.0408 32.0036 12.8697 31.9976 12.719C31.9961 12.665 31.9931 12.5938 31.9931 12.5V9.10175C31.9929 8.80961 31.8768 8.52949 31.6703 8.32291C31.4637 8.11634 31.1837 8.0002 30.8917 8H27.9862C27.7191 8.00056 27.4611 8.09749 27.2597 8.273L17.3723 16.943C16.8857 16.8455 16.1502 16.7188 15.638 16.7188C11.4265 16.7188 8 20.1463 8 24.359C8 28.5718 11.4265 32 15.6388 32ZM15.6388 17.4688C16.0144 17.4688 16.6578 17.5588 17.4038 17.7148C17.4606 17.727 17.5196 17.7257 17.5758 17.711C17.6321 17.6963 17.6841 17.6685 17.7277 17.63L27.7531 8.8385C27.8175 8.78179 27.9004 8.75035 27.9862 8.75H30.8917C31.0858 8.75 31.2433 8.9075 31.2433 9.10175V12.5H28.6191C28.5196 12.5 28.4243 12.5395 28.354 12.6098C28.2837 12.6802 28.2442 12.7755 28.2442 12.875V16.25H25.6199C25.5205 16.25 25.4251 16.2895 25.3548 16.3598C25.2845 16.4302 25.245 16.5255 25.245 16.625V19.7682L21.703 21.5397C21.6544 21.564 21.6117 21.5986 21.5777 21.6411C21.5438 21.6835 21.5195 21.7329 21.5065 21.7857C21.4935 21.8385 21.4922 21.8935 21.5025 21.9468C21.5129 22.0002 21.5348 22.0507 21.5666 22.0947C21.8965 22.55 22.2459 23.6802 22.2459 24.875C22.2459 28.0085 19.7746 31.25 15.6388 31.25C11.8404 31.25 8.74978 28.1585 8.74978 24.359C8.74978 20.5595 11.8404 17.4688 15.6388 17.4688V17.4688Z" fill="#212121"/>
<path d="M15.6388 32C20.244 32 22.9957 28.3775 22.9957 24.875C22.9957 23.8655 22.7542 22.7533 22.3973 22.031L25.7879 20.3353C25.8501 20.3041 25.9024 20.2562 25.9389 20.197C25.9755 20.1378 25.9948 20.0696 25.9948 20V17H28.2442L28.3289 16.9955C28.8282 16.9618 28.9775 16.8027 28.9939 16.25V13.25H31.2433C31.34 13.25 31.4068 13.2605 31.4517 13.2672C31.5425 13.2815 31.7119 13.3078 31.8589 13.1758C32.0103 13.0408 32.0036 12.8697 31.9976 12.719C31.9961 12.665 31.9931 12.5938 31.9931 12.5V9.10175C31.9929 8.80961 31.8768 8.52949 31.6703 8.32291C31.4637 8.11634 31.1837 8.0002 30.8917 8H27.9862C27.7191 8.00056 27.4611 8.09749 27.2597 8.273L17.3723 16.943C16.8857 16.8455 16.1502 16.7188 15.638 16.7188C11.4265 16.7188 8 20.1463 8 24.359C8 28.5718 11.4265 32 15.6388 32ZM15.6388 17.4688C16.0144 17.4688 16.6578 17.5588 17.4038 17.7148C17.4606 17.727 17.5196 17.7257 17.5758 17.711C17.6321 17.6963 17.6841 17.6685 17.7277 17.63L27.7531 8.8385C27.8175 8.78179 27.9004 8.75035 27.9862 8.75H30.8917C31.0858 8.75 31.2433 8.9075 31.2433 9.10175V12.5H28.6191C28.5196 12.5 28.4243 12.5395 28.354 12.6098C28.2837 12.6802 28.2442 12.7755 28.2442 12.875V16.25H25.6199C25.5205 16.25 25.4251 16.2895 25.3548 16.3598C25.2845 16.4302 25.245 16.5255 25.245 16.625V19.7682L21.703 21.5397C21.6544 21.564 21.6117 21.5986 21.5777 21.6411C21.5438 21.6835 21.5195 21.7329 21.5065 21.7857C21.4935 21.8385 21.4922 21.8935 21.5025 21.9468C21.5129 22.0002 21.5348 22.0507 21.5666 22.0947C21.8965 22.55 22.2459 23.6802 22.2459 24.875C22.2459 28.0085 19.7746 31.25 15.6388 31.25C11.8404 31.25 8.74978 28.1585 8.74978 24.359C8.74978 20.5595 11.8404 17.4688 15.6388 17.4688V17.4688Z" stroke="#212121" stroke-width="0.2" mask="url(#path-3-outside-2_627_384)"/>
<mask id="path-4-outside-3_627_384" maskUnits="userSpaceOnUse" x="10.749" y="22" width="7" height="7" fill="black">
<rect fill="white" x="10.749" y="22" width="7" height="7"/>
<path d="M14.3733 28.25C15.8203 28.25 16.9975 27.0725 16.9975 25.625C16.9975 24.1775 15.8203 23 14.3733 23C12.9262 23 11.749 24.1775 11.749 25.625C11.749 27.0725 12.9262 28.25 14.3733 28.25ZM14.3733 23.75C15.4065 23.75 16.2477 24.5915 16.2477 25.625C16.2477 26.6585 15.4065 27.5 14.3733 27.5C13.3401 27.5 12.4988 26.6585 12.4988 25.625C12.4988 24.5915 13.3401 23.75 14.3733 23.75Z"/>
</mask>
<path d="M14.3733 28.25C15.8203 28.25 16.9975 27.0725 16.9975 25.625C16.9975 24.1775 15.8203 23 14.3733 23C12.9262 23 11.749 24.1775 11.749 25.625C11.749 27.0725 12.9262 28.25 14.3733 28.25ZM14.3733 23.75C15.4065 23.75 16.2477 24.5915 16.2477 25.625C16.2477 26.6585 15.4065 27.5 14.3733 27.5C13.3401 27.5 12.4988 26.6585 12.4988 25.625C12.4988 24.5915 13.3401 23.75 14.3733 23.75Z" fill="#212121"/>
<path d="M14.3733 28.25C15.8203 28.25 16.9975 27.0725 16.9975 25.625C16.9975 24.1775 15.8203 23 14.3733 23C12.9262 23 11.749 24.1775 11.749 25.625C11.749 27.0725 12.9262 28.25 14.3733 28.25ZM14.3733 23.75C15.4065 23.75 16.2477 24.5915 16.2477 25.625C16.2477 26.6585 15.4065 27.5 14.3733 27.5C13.3401 27.5 12.4988 26.6585 12.4988 25.625C12.4988 24.5915 13.3401 23.75 14.3733 23.75Z" stroke="#212121" stroke-width="0.2" mask="url(#path-4-outside-3_627_384)"/>
<defs>
<linearGradient id="paint0_linear_627_384" x1="10" y1="19.9947" x2="42.0007" y2="35.9998" gradientUnits="userSpaceOnUse">
<stop stop-color="#FFE2AE"/>
<stop offset="1" stop-color="#CCA04A"/>
</linearGradient>
</defs>
</svg>
