<svg width="25" height="25" viewBox="0 0 25 25" fill="none" xmlns="http://www.w3.org/2000/svg">
<rect x="0.5" y="0.5" width="24" height="24" rx="12" fill="#212121" stroke="url(#paint0_linear_627_334)"/>
<path d="M9.89649 12.5C9.89649 11.0618 11.0621 9.89563 12.5002 9.89563C13.9384 9.89563 15.1046 11.0618 15.1046 12.5C15.1046 13.9382 13.9384 15.1044 12.5002 15.1044C11.0621 15.1044 9.89649 13.9382 9.89649 12.5ZM8.48862 12.5C8.48862 14.7156 10.2846 16.5116 12.5002 16.5116C14.7159 16.5116 16.5119 14.7156 16.5119 12.5C16.5119 10.2844 14.7159 8.48838 12.5002 8.48838C10.2846 8.48838 8.48862 10.2844 8.48862 12.5ZM15.7332 8.32931C15.7331 8.51473 15.788 8.69601 15.891 8.85022C15.9939 9.00444 16.1403 9.12466 16.3116 9.19568C16.4828 9.26671 16.6713 9.28535 16.8532 9.24925C17.0351 9.21315 17.2022 9.12392 17.3333 8.99287C17.4645 8.86181 17.5538 8.6948 17.5901 8.51295C17.6263 8.33111 17.6078 8.1426 17.537 7.97127C17.4661 7.79993 17.346 7.65347 17.1918 7.55039C17.0377 7.44732 16.8565 7.39226 16.6711 7.39219H16.6707C16.4221 7.3923 16.1838 7.49106 16.008 7.66677C15.8322 7.84248 15.7334 8.08077 15.7332 8.32931ZM9.34399 18.8592C8.58231 18.8245 8.16831 18.6976 7.89318 18.5904C7.52843 18.4484 7.26818 18.2793 6.99456 18.0061C6.72093 17.7328 6.55156 17.4728 6.41018 17.1081C6.30293 16.8331 6.17606 16.4189 6.14143 15.6573C6.10356 14.8338 6.09599 14.5864 6.09599 12.5001C6.09599 10.4138 6.10418 10.1671 6.14143 9.34288C6.17612 8.58119 6.30393 8.16788 6.41018 7.89206C6.55218 7.52731 6.72131 7.26706 6.99456 6.99344C7.26781 6.71981 7.52781 6.55044 7.89318 6.40906C8.16818 6.30181 8.58231 6.17494 9.34399 6.14031C10.1675 6.10244 10.4149 6.09487 12.5002 6.09487C14.5856 6.09487 14.8332 6.10306 15.6574 6.14031C16.4191 6.175 16.8324 6.30281 17.1082 6.40906C17.473 6.55044 17.7332 6.72019 18.0069 6.99344C18.2805 7.26669 18.4492 7.52731 18.5912 7.89206C18.6985 8.16706 18.8254 8.58119 18.86 9.34288C18.8979 10.1671 18.9054 10.4138 18.9054 12.5001C18.9054 14.5864 18.8979 14.8331 18.86 15.6573C18.8253 16.4189 18.6978 16.8329 18.5912 17.1081C18.4492 17.4728 18.2801 17.7331 18.0069 18.0061C17.7336 18.2791 17.473 18.4484 17.1082 18.5904C16.8332 18.6977 16.4191 18.8246 15.6574 18.8592C14.8339 18.8971 14.5866 18.9046 12.5002 18.9046C10.4139 18.9046 10.1672 18.8971 9.34399 18.8592ZM9.27931 4.73481C8.44762 4.77269 7.87931 4.90456 7.38299 5.09769C6.86899 5.29712 6.43387 5.56469 5.99906 5.99881C5.56424 6.43294 5.29737 6.86875 5.09793 7.38275C4.90481 7.87937 4.77293 8.44738 4.73506 9.27906C4.69656 10.1121 4.68774 10.3784 4.68774 12.5C4.68774 14.6216 4.69656 14.8879 4.73506 15.7209C4.77293 16.5527 4.90481 17.1206 5.09793 17.6173C5.29737 18.1309 5.56431 18.5673 5.99906 19.0012C6.43381 19.4351 6.86899 19.7023 7.38299 19.9023C7.88024 20.0954 8.44762 20.2273 9.27931 20.2652C10.1127 20.3031 10.3786 20.3125 12.5002 20.3125C14.6219 20.3125 14.8882 20.3037 15.7212 20.2652C16.5529 20.2273 17.1209 20.0954 17.6175 19.9023C18.1312 19.7023 18.5666 19.4353 19.0014 19.0012C19.4362 18.5671 19.7026 18.1309 19.9026 17.6173C20.0957 17.1206 20.2282 16.5526 20.2654 15.7209C20.3033 14.8873 20.3121 14.6216 20.3121 12.5C20.3121 10.3784 20.3033 10.1121 20.2654 9.27906C20.2276 8.44731 20.0957 7.87906 19.9026 7.38275C19.7026 6.86906 19.4356 6.43362 19.0014 5.99881C18.5673 5.564 18.1312 5.29712 17.6181 5.09769C17.1209 4.90456 16.5529 4.77206 15.7218 4.73481C14.8888 4.69694 14.6225 4.6875 12.5009 4.6875C10.3792 4.6875 10.1127 4.69631 9.27931 4.73481Z" fill="url(#paint1_linear_627_334)"/>
<defs>
<linearGradient id="paint0_linear_627_334" x1="6.25" y1="12.4967" x2="26.2504" y2="22.4999" gradientUnits="userSpaceOnUse">
<stop stop-color="#FFE2AE"/>
<stop offset="1" stop-color="#CCA04A"/>
</linearGradient>
<linearGradient id="paint1_linear_627_334" x1="8.59384" y1="12.4979" x2="21.0938" y2="18.7495" gradientUnits="userSpaceOnUse">
<stop stop-color="#FFE2AE"/>
<stop offset="1" stop-color="#CCA04A"/>
</linearGradient>
</defs>
</svg>
