<svg width="25" height="25" viewBox="0 0 25 25" fill="none" xmlns="http://www.w3.org/2000/svg">
<rect x="0.5" y="0.5" width="24" height="24" rx="12" fill="#212121" stroke="url(#paint0_linear_758_2)"/>
<mask id="path-2-inside-1_758_2" fill="white">
<path d="M17.6272 13.9415C17.2998 13.6022 16.9049 13.4207 16.4864 13.4207C16.0712 13.4207 15.6729 13.5988 15.332 13.9382L14.4731 14.7905C14.3497 14.913 14.16 14.9422 14.0056 14.8622V14.8622C13.884 14.8017 13.7693 14.7446 13.6714 14.6841C12.6723 14.0524 11.7644 13.2292 10.8936 12.164C10.7592 11.9949 10.6388 11.8343 10.5305 11.6792C10.1565 11.1438 10.3056 10.4303 10.7653 9.9664V9.9664C10.8598 9.87231 10.9543 9.77487 11.0488 9.68078C11.7576 8.97513 11.7576 8.06116 11.0488 7.35551L10.1274 6.43817C10.0228 6.33401 9.91475 6.22648 9.81349 6.11895C9.61098 5.91062 9.39834 5.69556 9.17895 5.49395C8.85155 5.17137 8.46002 5 8.04824 5C7.63646 5 7.23818 5.17137 6.90065 5.49395C6.89728 5.49731 6.89728 5.49731 6.8939 5.50067L5.74632 6.65323C5.31429 7.08333 5.06789 7.60753 5.01389 8.21573C4.93288 9.19691 5.22315 10.1109 5.44592 10.709C5.99271 12.1774 6.80952 13.5383 8.02799 14.9966C9.50635 16.754 11.2851 18.1418 13.317 19.1196C14.0933 19.4859 15.1295 19.9194 16.2872 19.9933C16.3581 19.9966 16.4324 20 16.4999 20C17.2754 20 17.9274 19.7241 18.4392 19.1755C18.4446 19.1697 18.4493 19.1631 18.455 19.1574V19.1574C18.4595 19.1529 18.4629 19.1474 18.4671 19.1424C18.6411 18.9337 18.8414 18.7442 19.0516 18.5417C19.1967 18.4039 19.3452 18.2594 19.4903 18.1082C19.8245 17.7621 20 17.3589 20 16.9456C20 16.5289 19.8211 16.129 19.4802 15.793L17.6272 13.9415ZM18.8355 17.4798C18.8322 17.4832 19.0337 17.2038 18.8355 17.4798C18.7039 17.621 18.5689 17.7487 18.4238 17.8898C18.2044 18.0981 17.9816 18.3165 17.7723 18.5618C17.4314 18.9247 17.0298 19.0961 16.5032 19.0961C16.4526 19.0961 16.3986 19.0961 16.348 19.0927C15.3455 19.0289 14.414 18.6391 13.7153 18.3065C11.8049 17.3858 10.1274 16.0786 8.73341 14.422C7.58245 13.041 6.8129 11.7641 6.30323 10.3931C5.98934 9.55645 5.87458 8.90457 5.92521 8.28965C5.95896 7.89651 6.11085 7.57056 6.39099 7.29167L7.54195 6.14583C7.70734 5.99126 7.88285 5.90726 8.05499 5.90726C8.26763 5.90726 8.43977 6.03495 8.54778 6.14247C8.55115 6.14583 8.55453 6.14919 8.5579 6.15255C8.76379 6.34409 8.95956 6.54234 9.16545 6.75403C9.27008 6.86156 9.37809 6.96909 9.4861 7.07997L10.4075 7.99731C10.7653 8.35349 10.7653 8.6828 10.4075 9.03898C10.3097 9.13643 10.2151 9.23387 10.1173 9.32796C9.83375 9.61694 9.56373 9.88575 9.27008 10.1478V10.1478C9.25883 10.159 9.24729 10.1704 9.2363 10.1819C8.96508 10.4648 9.01814 10.7397 9.07769 10.9274C9.08107 10.9375 9.08444 10.9476 9.08782 10.9577C9.32746 11.5356 9.66498 12.08 10.178 12.7285L10.1814 12.7319C11.113 13.8743 12.0952 14.7648 13.1786 15.4469C13.317 15.5343 13.4588 15.6048 13.5938 15.672C13.7153 15.7325 13.83 15.7897 13.9279 15.8501C13.9414 15.8569 13.9549 15.8669 13.9684 15.8737C14.0832 15.9308 14.1912 15.9577 14.3026 15.9577C14.5827 15.9577 14.7582 15.7829 14.8156 15.7258L15.97 14.5766C16.0847 14.4624 16.267 14.3246 16.4796 14.3246C16.6889 14.3246 16.861 14.4556 16.9656 14.5699C16.969 14.5733 16.969 14.5733 16.9724 14.5766L18.8322 16.4281C19.1798 16.7708 19.1798 17.1237 18.8355 17.4798Z"/>
</mask>
<path d="M17.6272 13.9415L16.9075 14.6358L16.9139 14.6424L16.9204 14.6489L17.6272 13.9415ZM15.332 13.9382L16.0364 14.648L16.0376 14.6469L15.332 13.9382ZM13.6714 14.6841L13.1369 15.5294L13.1457 15.5348L13.6714 14.6841ZM10.8936 12.164L10.1106 12.7862L10.1194 12.7969L10.8936 12.164ZM11.0488 7.35551L11.7544 6.64683L11.7544 6.64683L11.0488 7.35551ZM10.1274 6.43817L9.42187 7.14686L9.42187 7.14686L10.1274 6.43817ZM9.81349 6.11895L10.5415 5.43339L10.5361 5.42761L10.5305 5.42193L9.81349 6.11895ZM9.17895 5.49395L8.4771 6.20628L8.48949 6.21849L8.5023 6.23026L9.17895 5.49395ZM6.90065 5.49395L6.20973 4.77102L6.20236 4.77807L6.19513 4.78527L6.90065 5.49395ZM6.8939 5.50067L6.18837 4.79198L6.18527 4.79509L6.8939 5.50067ZM5.74632 6.65323L6.45185 7.36192L6.45495 7.3588L5.74632 6.65323ZM5.01389 8.21573L4.01779 8.12728L4.01728 8.13345L5.01389 8.21573ZM5.44592 10.709L6.38306 10.36L6.38303 10.36L5.44592 10.709ZM8.02799 14.9966L7.26059 15.6378L7.26274 15.6404L8.02799 14.9966ZM13.317 19.1196L12.8834 20.0207L12.8903 20.024L13.317 19.1196ZM16.2872 19.9933L16.2235 20.9912L16.2317 20.9918L16.2399 20.9922L16.2872 19.9933ZM19.0516 18.5417L18.3631 17.8164L18.3575 17.8217L19.0516 18.5417ZM19.4903 18.1082L18.7709 17.4136L18.7689 17.4157L19.4903 18.1082ZM19.4802 15.793L18.7734 16.5004L18.7782 16.5052L19.4802 15.793ZM18.4238 17.8898L19.1124 18.615L19.1209 18.6067L18.4238 17.8898ZM17.7723 18.5618L18.5012 19.2465L18.5176 19.2291L18.5331 19.2109L17.7723 18.5618ZM16.348 19.0927L16.4142 18.0949L16.4115 18.0948L16.348 19.0927ZM13.7153 18.3065L13.2811 19.2073L13.2854 19.2093L13.7153 18.3065ZM8.73341 14.422L7.96521 15.0623L7.96827 15.0659L8.73341 14.422ZM6.30323 10.3931L7.24056 10.0447L7.23951 10.0419L6.30323 10.3931ZM5.92521 8.28965L4.92887 8.20411L4.92858 8.20759L5.92521 8.28965ZM6.39099 7.29167L7.09652 8.00035H7.09652L6.39099 7.29167ZM7.54195 6.14583L6.85914 5.41524L6.84761 5.42601L6.83642 5.43715L7.54195 6.14583ZM8.54778 6.14247L9.2533 5.43379L8.54778 6.14247ZM8.5579 6.15255L7.85237 6.86124L7.86438 6.87319L7.87679 6.88473L8.5579 6.15255ZM9.16545 6.75403L8.44858 7.45124L8.44876 7.45143L9.16545 6.75403ZM9.48609 7.07997L8.76975 7.77772L8.77512 7.78323L8.78057 7.78866L9.48609 7.07997ZM10.1173 9.32796L9.42428 8.60701L9.41371 8.61716L9.40345 8.62762L10.1173 9.32796ZM9.07769 10.9274L8.12449 11.2298L8.1269 11.2374L8.12943 11.2449L9.07769 10.9274ZM9.08782 10.9577L8.13956 11.2752L8.15067 11.3083L8.16407 11.3407L9.08782 10.9577ZM10.178 12.7285L9.39375 13.3489L9.43053 13.3954L9.47253 13.4372L10.178 12.7285ZM10.1814 12.7319L10.9564 12.0999L10.9236 12.0597L10.8869 12.0231L10.1814 12.7319ZM13.1786 15.4469L13.7125 14.6013L13.7114 14.6007L13.1786 15.4469ZM13.5938 15.672L13.1482 16.5673L13.5938 15.672ZM13.9279 15.8501L13.4023 16.7008L13.4413 16.7249L13.4823 16.7454L13.9279 15.8501ZM13.9684 15.8737L13.5228 16.7689L13.9684 15.8737ZM14.8156 15.7258L15.5211 16.4345L14.8156 15.7258ZM16.9656 14.5699L16.2282 15.2453L16.2438 15.2623L16.2601 15.2786L16.9656 14.5699ZM16.9724 14.5766L16.2669 15.2853L16.9724 14.5766ZM18.8322 16.4281L18.1266 17.1368L18.1301 17.1402L18.8322 16.4281ZM18.4671 19.1424L17.6991 18.502L18.4671 19.1424ZM18.4392 19.1755L17.708 18.4933L18.4392 19.1755ZM14.4731 14.7905L13.7687 14.0807L14.4731 14.7905ZM18.3469 13.2472C17.8593 12.7418 17.2145 12.4207 16.4864 12.4207V14.4207C16.5953 14.4207 16.7403 14.4625 16.9075 14.6358L18.3469 13.2472ZM16.4864 12.4207C15.7656 12.4207 15.1235 12.7347 14.6265 13.2295L16.0376 14.6469C16.2224 14.4628 16.3768 14.4207 16.4864 14.4207V12.4207ZM14.6276 13.2284L13.7687 14.0807L15.1775 15.5003L16.0364 14.648L14.6276 13.2284ZM14.4512 13.967C14.3189 13.9012 14.2483 13.8651 14.1971 13.8334L13.1457 15.5348C13.2903 15.6241 13.4492 15.7023 13.5599 15.7575L14.4512 13.967ZM14.2058 13.8389C13.3109 13.273 12.4813 12.5262 11.6678 11.531L10.1194 12.7969C11.0475 13.9322 12.0338 14.8318 13.137 15.5294L14.2058 13.8389ZM11.6765 11.5418C11.5529 11.3863 11.4451 11.2423 11.3503 11.1066L9.71074 12.2519C9.83249 12.4262 9.96544 12.6034 10.1107 12.7861L11.6765 11.5418ZM11.4708 10.6751C11.5218 10.6244 11.5721 10.5733 11.6188 10.526C11.6666 10.4776 11.7108 10.4329 11.7544 10.3895L10.3433 8.9721C10.2924 9.02279 10.242 9.07384 10.1953 9.12118C10.1475 9.16961 10.1034 9.21432 10.0598 9.25771L11.4708 10.6751ZM11.7544 10.3895C12.2645 9.88156 12.5804 9.23192 12.5804 8.51815C12.5804 7.80437 12.2645 7.15473 11.7544 6.64683L10.3433 8.06419C10.5419 8.26194 10.5804 8.42211 10.5804 8.51815C10.5804 8.61418 10.5419 8.77435 10.3433 8.9721L11.7544 10.3895ZM11.7544 6.64683L10.8329 5.72949L9.42187 7.14686L10.3433 8.06419L11.7544 6.64683ZM10.8329 5.72949C10.7262 5.62325 10.6298 5.52716 10.5415 5.43339L9.08548 6.80452C9.1997 6.9258 9.31932 7.04476 9.42187 7.14686L10.8329 5.72949ZM10.5305 5.42193C10.3256 5.21112 10.0968 4.97927 9.85559 4.75764L8.5023 6.23026C8.69991 6.41186 8.89634 6.61012 9.09645 6.81597L10.5305 5.42193ZM9.88079 4.78162C9.39063 4.29867 8.75495 4 8.04824 4V6C8.16508 6 8.31247 6.04407 8.4771 6.20628L9.88079 4.78162ZM8.04824 4C7.34423 4 6.70651 4.29624 6.20973 4.77102L7.59157 6.21688C7.76985 6.0465 7.92869 6 8.04824 6V4ZM6.19513 4.78527C6.19343 4.78695 6.19258 4.7878 6.19174 4.78864C6.1909 4.78948 6.19006 4.79031 6.18838 4.79199L7.59943 6.20936C7.60112 6.20767 7.60197 6.20682 7.60282 6.20598C7.60366 6.20514 7.6045 6.20431 7.60618 6.20264L6.19513 4.78527ZM6.18527 4.79509L5.03769 5.94765L6.45495 7.3588L7.60254 6.20625L6.18527 4.79509ZM5.04079 5.94454C4.44243 6.54024 4.0927 7.28386 4.01781 8.12728L6.00997 8.30417C6.04309 7.93119 6.18614 7.62643 6.45184 7.36191L5.04079 5.94454ZM4.01728 8.13345C3.91742 9.34298 4.2745 10.4289 4.50881 11.058L6.38303 10.36C6.17181 9.79286 5.94834 9.05084 6.0105 8.29801L4.01728 8.13345ZM4.50878 11.058C5.10213 12.6514 5.98338 14.1092 7.26059 15.6378L8.79538 14.3555C7.63567 12.9674 6.88329 11.7034 6.38306 10.36L4.50878 11.058ZM7.26274 15.6404C8.83019 17.5037 10.7212 18.9802 12.8834 20.0207L13.7506 18.2185C11.849 17.3034 10.1825 16.0044 8.79323 14.3529L7.26274 15.6404ZM12.8903 20.024C13.6905 20.4015 14.8687 20.9047 16.2235 20.9912L16.3509 18.9953C15.3903 18.934 14.4962 18.5702 13.7437 18.2152L12.8903 20.024ZM16.2399 20.9922C16.3076 20.9954 16.405 21 16.4999 21V19C16.4597 19 16.4086 18.9979 16.3346 18.9944L16.2399 20.9922ZM16.4999 21C17.5403 21 18.4611 20.6178 19.1704 19.8577L17.708 18.4933C17.3936 18.8303 17.0105 19 16.4999 19V21ZM19.2351 19.7829C19.3664 19.6253 19.5209 19.4782 19.7456 19.2616L18.3575 17.8217C18.1619 18.0103 17.9158 18.242 17.6991 18.502L19.2351 19.7829ZM19.74 19.2669C19.8908 19.1238 20.0516 18.9675 20.2118 18.8007L18.7689 17.4157C18.6388 17.5513 18.5026 17.6839 18.3631 17.8164L19.74 19.2669ZM20.2098 18.8028C20.6944 18.3008 21 17.6576 21 16.9456H19C19 17.0601 18.9546 17.2234 18.7709 17.4136L20.2098 18.8028ZM21 16.9456C21 16.224 20.6855 15.5769 20.1822 15.0808L18.7782 16.5052C18.9567 16.6811 19 16.8338 19 16.9456H21ZM20.187 15.0856L18.334 13.2341L16.9204 14.6489L18.7734 16.5004L20.187 15.0856ZM19.6478 18.0631C19.697 17.9946 19.7228 17.9585 19.7332 17.9439C19.7346 17.942 19.7362 17.9398 19.7377 17.9377C19.738 17.9372 19.742 17.9316 19.7464 17.9252C19.7476 17.9235 19.7509 17.9187 19.7549 17.9126C19.7569 17.9097 19.761 17.9035 19.7661 17.8955C19.7686 17.8916 19.7745 17.8821 19.7779 17.8765C19.7829 17.8682 19.7959 17.8456 19.8037 17.8314C19.8184 17.8028 19.8666 17.6886 19.893 17.6006C19.8527 16.99 18.918 16.3579 18.3733 16.5225C18.3024 16.5737 18.214 16.6526 18.1924 16.675C18.1816 16.6867 18.1648 16.7058 18.1586 16.7131C18.1476 16.7261 18.1393 16.7365 18.1368 16.7397C18.1332 16.7444 18.1303 16.7481 18.1286 16.7503C18.1232 16.7575 18.1188 16.7634 18.1183 16.764C18.1168 16.766 18.1156 16.7677 18.1148 16.7688C18.1103 16.7749 18.1034 16.7845 18.0976 16.7925C18.0844 16.8108 18.065 16.8378 18.0489 16.8603C18.041 16.8714 18.033 16.8826 18.0267 16.8915C18.0239 16.8953 18.0195 16.9016 18.015 16.908C18.0141 16.9094 18.0073 16.9192 17.9994 16.9312C17.9971 16.9348 17.9929 16.9412 17.9878 16.9494C17.9846 16.9544 17.9723 16.9741 17.9581 17.0001C17.9544 17.0069 17.9463 17.0224 17.9418 17.0312C17.9361 17.0428 17.923 17.0709 17.9158 17.0873C17.9058 17.1116 17.8829 17.1758 17.871 17.2159C17.8538 17.2893 17.8365 17.5246 17.8566 17.6844C17.9874 18.0096 18.5477 18.4376 18.9116 18.477C19.0807 18.4493 19.3139 18.358 19.3822 18.3172C19.4181 18.2927 19.474 18.2495 19.4947 18.2318C19.5084 18.2196 19.5316 18.1979 19.5411 18.1885L18.13 16.7712C18.1395 16.7618 18.1626 16.7401 18.1763 16.7279C18.197 16.7102 18.253 16.6671 18.2889 16.6425C18.3571 16.6017 18.5903 16.5104 18.7594 16.4828C19.1233 16.5222 19.6836 16.9501 19.8144 17.2754C19.8345 17.4351 19.8172 17.6705 19.8 17.7438C19.7881 17.7839 19.7652 17.8481 19.7552 17.8724C19.7481 17.8888 19.735 17.9168 19.7292 17.9285C19.7248 17.9372 19.7166 17.9527 19.713 17.9595C19.6988 17.9854 19.6865 18.005 19.6835 18.0099C19.6785 18.0179 19.6744 18.0241 19.6722 18.0275C19.6677 18.0343 19.6642 18.0395 19.6629 18.0414C19.6612 18.0439 19.6599 18.0457 19.6593 18.0467C19.6573 18.0495 19.6566 18.0504 19.6587 18.0475C19.662 18.0428 19.6677 18.0349 19.6751 18.0246C19.6896 18.0043 19.7076 17.9793 19.7196 17.9627C19.7263 17.9533 19.729 17.9496 19.7287 17.9501C19.7284 17.9504 19.7276 17.9515 19.7265 17.9531C19.7263 17.9533 19.7222 17.9588 19.7169 17.9658C19.7153 17.9679 19.7124 17.9716 19.7088 17.9762C19.7063 17.9794 19.6981 17.9898 19.6871 18.0028C19.6809 18.0101 19.6641 18.0292 19.6533 18.0409C19.6317 18.0633 19.5433 18.1422 19.4724 18.1934C18.9277 18.3579 17.993 17.7258 17.9528 17.1152C17.9791 17.0273 18.0273 16.913 18.0421 16.8844C18.0499 16.8702 18.0628 16.8477 18.0678 16.8393C18.0712 16.8338 18.0771 16.8243 18.0796 16.8204C18.0847 16.8124 18.0888 16.8063 18.0907 16.8034C18.0947 16.7974 18.0979 16.7928 18.0989 16.7912C18.1015 16.7875 18.1035 16.7847 18.1038 16.7842C18.1045 16.7832 18.105 16.7826 18.105 16.7825C18.1052 16.7823 18.1049 16.7826 18.1041 16.7838C18.0964 16.7946 18.0731 16.8271 18.0233 16.8966L19.6478 18.0631ZM18.1043 16.7978C17.9942 16.9157 17.8851 17.0188 17.7266 17.1729L19.1209 18.6067C19.2527 18.4785 19.4136 18.3262 19.5668 18.1619L18.1043 16.7978ZM17.7352 17.1646C17.51 17.3784 17.2561 17.6261 17.0116 17.9128L18.5331 19.2109C18.7071 19.0069 18.8987 18.8178 19.1124 18.6149L17.7352 17.1646ZM17.0435 17.8772C16.9002 18.0297 16.7665 18.0961 16.5032 18.0961V20.0961C17.2931 20.0961 17.9627 19.8197 18.5012 19.2465L17.0435 17.8772ZM16.5032 18.0961C16.446 18.0961 16.4259 18.0957 16.4142 18.0949L16.2818 20.0905C16.3713 20.0965 16.4592 20.0961 16.5032 20.0961V18.0961ZM16.4115 18.0948C15.6091 18.0437 14.8215 17.7256 14.1452 17.4036L13.2854 19.2093C14.0064 19.5526 15.082 20.0141 16.2844 20.0907L16.4115 18.0948ZM14.1494 17.4056C12.3687 16.5474 10.8033 15.3288 9.49856 13.7782L7.96827 15.0659C9.45144 16.8285 11.2411 18.2241 13.2811 19.2073L14.1494 17.4056ZM9.50161 13.7818C8.40738 12.4688 7.70302 11.2887 7.24056 10.0447L5.36591 10.7416C5.92278 12.2395 6.75753 13.6131 7.96522 15.0623L9.50161 13.7818ZM7.23951 10.0419C6.95736 9.2898 6.88727 8.79149 6.92183 8.37171L4.92858 8.20759C4.86188 9.01765 5.02132 9.82311 5.36696 10.7444L7.23951 10.0419ZM6.92154 8.37519C6.93508 8.21745 6.98403 8.11233 7.09652 8.00035L5.68546 6.58298C5.23766 7.0288 4.98283 7.57556 4.92887 8.20411L6.92154 8.37519ZM7.09652 8.00035L8.24748 6.85452L6.83642 5.43715L5.68546 6.58298L7.09652 8.00035ZM8.22476 6.87643C8.2462 6.85639 8.24613 6.86197 8.22018 6.87413C8.19206 6.88731 8.13478 6.90726 8.05499 6.90726V4.90726C7.54711 4.90726 7.13938 5.15333 6.85914 5.41524L8.22476 6.87643ZM8.05499 6.90726C7.95655 6.90726 7.88866 6.87712 7.86155 6.86232C7.83733 6.8491 7.83249 6.84144 7.84225 6.85116L9.2533 5.43379C9.08253 5.26377 8.66722 4.90726 8.05499 4.90726V6.90726ZM7.84225 6.85116C7.84393 6.85283 7.84561 6.8545 7.8473 6.85618C7.84898 6.85786 7.85068 6.85955 7.85237 6.86124L9.26343 5.44387C9.26175 5.4422 9.26007 5.44053 9.25838 5.43884C9.25669 5.43717 9.255 5.43548 9.2533 5.43379L7.84225 6.85116ZM7.87679 6.88473C8.06334 7.05827 8.2446 7.24151 8.44858 7.45124L9.88231 6.05682C9.67452 5.84317 9.46424 5.6299 9.23902 5.42038L7.87679 6.88473ZM8.44876 7.45143C8.50435 7.50855 8.56033 7.56517 8.61346 7.61889C8.66751 7.67355 8.71883 7.72545 8.76975 7.77772L10.2024 6.38223C10.1453 6.32361 10.0887 6.26631 10.0355 6.21259C9.98151 6.15795 9.93118 6.10704 9.88213 6.05664L8.44876 7.45143ZM8.78057 7.78866L9.70201 8.706L11.1131 7.28863L10.1916 6.37129L8.78057 7.78866ZM9.70201 8.706C9.78599 8.7896 9.67587 8.72077 9.67587 8.51815C9.67587 8.31552 9.78599 8.24669 9.70201 8.3303L11.1131 9.74766C11.3869 9.47509 11.6759 9.06352 11.6759 8.51815C11.6759 7.97277 11.3869 7.56121 11.1131 7.28863L9.70201 8.706ZM9.70201 8.3303C9.58657 8.44522 9.51477 8.52002 9.42428 8.60701L10.8103 10.0489C10.9155 9.94772 11.0327 9.82763 11.1131 9.74766L9.70201 8.3303ZM9.40345 8.62762C9.12382 8.91264 8.87245 9.16236 8.60419 9.4018L9.93597 10.8939C10.255 10.6091 10.5437 10.3212 10.8311 10.0283L9.40345 8.62762ZM8.5144 9.48987C8.23101 9.78551 8.07524 10.13 8.03826 10.4875C8.004 10.8187 8.0802 11.0901 8.12449 11.2298L10.0309 10.6251C10.0156 10.577 10.0355 10.6171 10.0277 10.6932C10.0233 10.7353 10.0118 10.7784 9.99352 10.8172C9.98492 10.8354 9.9763 10.8496 9.96932 10.8596C9.96242 10.8695 9.958 10.8741 9.9582 10.8739L8.5144 9.48987ZM8.12943 11.2449C8.13112 11.25 8.13281 11.255 8.1345 11.2601C8.13619 11.2651 8.13787 11.2701 8.13956 11.2752L10.0361 10.6402C10.0344 10.6351 10.0327 10.6301 10.031 10.625C10.0293 10.62 10.0276 10.615 10.0259 10.6099L8.12943 11.2449ZM8.16407 11.3407C8.44923 12.0284 8.84277 12.6524 9.39375 13.3489L10.9623 12.1081C10.4872 11.5075 10.2057 11.0428 10.0116 10.5746L8.16407 11.3407ZM9.47253 13.4372L9.47591 13.4406L10.8869 12.0231L10.8835 12.0198L9.47253 13.4372ZM9.40638 13.3638C10.3961 14.5775 11.4575 15.545 12.6458 16.2932L13.7114 14.6007C12.7328 13.9846 11.8299 13.1711 10.9564 12.0999L9.40638 13.3638ZM12.6448 16.2925C12.8326 16.4111 13.0191 16.503 13.1482 16.5673L14.0394 14.7768C13.8984 14.7067 13.8014 14.6575 13.7125 14.6013L12.6448 16.2925ZM13.1482 16.5673C13.2804 16.6331 13.351 16.6692 13.4023 16.7008L14.4536 14.9994C14.3091 14.9101 14.1502 14.832 14.0394 14.7768L13.1482 16.5673ZM13.4823 16.7454C13.457 16.7327 13.4381 16.7218 13.4292 16.7165C13.4244 16.7137 13.421 16.7116 13.4196 16.7108C13.4185 16.7101 13.4178 16.7096 13.4199 16.7109C13.4212 16.7117 13.4252 16.7143 13.4297 16.717C13.4345 16.72 13.4413 16.7241 13.4494 16.7289C13.4651 16.7382 13.4907 16.7529 13.5228 16.7689L14.414 14.9784C14.4394 14.9911 14.4583 15.002 14.4672 15.0072C14.4719 15.0101 14.4754 15.0122 14.4768 15.013C14.4779 15.0137 14.4786 15.0141 14.4765 15.0128C14.4752 15.012 14.4711 15.0095 14.4666 15.0067C14.4619 15.0038 14.4551 14.9997 14.4469 14.9949C14.4313 14.9856 14.4056 14.9709 14.3735 14.9549L13.4823 16.7454ZM13.5228 16.7689C13.7573 16.8856 14.0169 16.9577 14.3026 16.9577V14.9577C14.3292 14.9577 14.3561 14.9611 14.38 14.9671C14.403 14.9729 14.415 14.9789 14.414 14.9784L13.5228 16.7689ZM14.3026 16.9577C15.016 16.9577 15.4457 16.5096 15.5211 16.4345L14.1101 15.0171C14.0923 15.0348 14.1071 15.018 14.1342 15.0021C14.166 14.9832 14.2261 14.9577 14.3026 14.9577V16.9577ZM15.5211 16.4345L16.6755 15.2853L15.2644 13.8679L14.1101 15.0171L15.5211 16.4345ZM16.6755 15.2853C16.692 15.2688 16.695 15.2699 16.6789 15.279C16.662 15.2885 16.5917 15.3246 16.4796 15.3246V13.3246C15.8535 13.3246 15.4245 13.7086 15.2644 13.8679L16.6755 15.2853ZM16.4796 15.3246C16.3711 15.3246 16.2964 15.2902 16.2655 15.2725C16.2496 15.2634 16.24 15.2559 16.2359 15.2525C16.2317 15.249 16.2295 15.2467 16.2282 15.2453L17.7031 13.8945C17.5242 13.6992 17.1036 13.3246 16.4796 13.3246V15.3246ZM16.2601 15.2786C16.2618 15.2803 16.2627 15.2812 16.2636 15.282C16.2644 15.2828 16.2652 15.2837 16.2669 15.2853L17.6779 13.8679C17.6762 13.8662 17.6753 13.8653 17.6745 13.8645C17.6736 13.8637 17.6728 13.8629 17.6712 13.8612L16.2601 15.2786ZM16.2669 15.2853L18.1266 17.1368L19.5377 15.7194L17.6779 13.8679L16.2669 15.2853ZM18.1301 17.1402C18.1883 17.1976 18.0938 17.1316 18.0933 16.9513C18.0929 16.7759 18.1827 16.7164 18.1165 16.7849L19.5546 18.1748C19.8327 17.8871 20.0946 17.4731 20.0933 16.9465C20.092 16.4151 19.8237 16.0013 19.5342 15.716L18.1301 17.1402ZM8.56455 9.43917C8.55913 9.44457 8.53583 9.46752 8.5144 9.48987L9.9582 10.8739C9.95714 10.875 9.9575 10.8746 9.9607 10.8714C9.96225 10.8698 9.96408 10.868 9.96664 10.8654C9.96872 10.8634 9.97253 10.8596 9.97561 10.8565L8.56455 9.43917ZM19.1632 19.8634C19.1907 19.8358 19.2122 19.8111 19.2273 19.7929C19.2421 19.7751 19.2533 19.7605 19.2581 19.7541C19.2605 19.751 19.2627 19.7481 19.2628 19.7479C19.2635 19.747 19.2622 19.7487 19.2607 19.7507C19.2576 19.7548 19.2481 19.7672 19.2351 19.7829L17.6991 18.502C17.684 18.5201 17.6725 18.5351 17.6675 18.5417C17.6649 18.5451 17.6627 18.548 17.6624 18.5484C17.6616 18.5495 17.6628 18.5479 17.6642 18.546C17.6671 18.5423 17.6763 18.5301 17.689 18.5148C17.7021 18.4991 17.7215 18.4768 17.7467 18.4515L19.1632 19.8634ZM19.1704 19.8577C19.1862 19.8407 19.1984 19.8265 19.2054 19.8183C19.209 19.814 19.2119 19.8105 19.2135 19.8086C19.2143 19.8077 19.215 19.8068 19.2154 19.8064C19.2158 19.8059 19.2158 19.8059 19.2157 19.806C19.2156 19.8061 19.2142 19.8078 19.2121 19.8103C19.21 19.8128 19.2066 19.8167 19.2024 19.8215C19.1942 19.8309 19.1808 19.8458 19.1632 19.8634L17.7467 18.4515C17.7263 18.4719 17.7102 18.4898 17.6993 18.5022C17.6889 18.5141 17.6806 18.524 17.6783 18.5268C17.6776 18.5276 17.6769 18.5285 17.6767 18.5287C17.6764 18.5291 17.6765 18.529 17.6766 18.5288C17.677 18.5284 17.6786 18.5265 17.6809 18.5238C17.6853 18.5186 17.6949 18.5073 17.708 18.4933L19.1704 19.8577ZM11.3503 11.1066C11.3268 11.0729 11.3111 11.0277 11.323 10.9522C11.3362 10.8684 11.3843 10.7625 11.4756 10.6703L10.055 9.26247C9.34598 9.97792 8.99224 11.2233 9.71074 12.2519L11.3503 11.1066ZM13.7687 14.0807C13.9532 13.8977 14.2337 13.8543 14.4653 13.9742L13.5458 15.7503C14.0863 16.0301 14.7463 15.9283 15.1775 15.5003L13.7687 14.0807Z" fill="url(#paint1_linear_758_2)" mask="url(#path-2-inside-1_758_2)"/>
<defs>
<linearGradient id="paint0_linear_758_2" x1="6.25" y1="12.4967" x2="26.2504" y2="22.4999" gradientUnits="userSpaceOnUse">
<stop stop-color="#FFE2AE"/>
<stop offset="1" stop-color="#CCA04A"/>
</linearGradient>
<linearGradient id="paint1_linear_758_2" x1="8.75" y1="12.498" x2="20.7503" y2="18.4999" gradientUnits="userSpaceOnUse">
<stop stop-color="#FFE2AE"/>
<stop offset="1" stop-color="#CCA04A"/>
</linearGradient>
</defs>
</svg>
