<svg width="40" height="40" viewBox="0 0 40 40" fill="none" xmlns="http://www.w3.org/2000/svg">
<rect width="40" height="40" rx="20" fill="url(#paint0_linear_627_393)"/>
<path fill-rule="evenodd" clip-rule="evenodd" d="M18.7187 8.25959C19.1247 8.08822 19.5602 8 20 8C20.4398 8 20.8753 8.08824 21.2814 8.25962C21.2816 8.25975 21.2811 8.2595 21.2814 8.25962L30.6947 12.1915C30.8794 12.2687 31 12.4513 31 12.6538V22.3462C31 23.8141 30.261 25.2097 29.2436 26.4444C28.2205 27.686 26.8694 28.8215 25.5388 29.7786C24.205 30.7378 22.8741 31.5304 21.8783 32.0825C21.3799 32.3589 20.9641 32.5758 20.6722 32.7239C20.5262 32.7979 20.4111 32.8548 20.3321 32.8935C20.2926 32.9128 20.2621 32.9275 20.2412 32.9375L20.2172 32.949L20.2108 32.952L20.209 32.9529C20.2088 32.953 20.2082 32.9533 20 32.5C19.7918 32.9533 19.7917 32.9532 19.7915 32.9531L19.7828 32.949L19.7588 32.9375C19.7379 32.9275 19.7074 32.9128 19.6679 32.8935C19.5889 32.8548 19.4738 32.7979 19.3278 32.7239C19.0359 32.5758 18.6201 32.3589 18.1217 32.0825C17.1259 31.5304 15.795 30.7378 14.4612 29.7786C13.1306 28.8215 11.7795 27.686 10.7564 26.4444C9.73896 25.2097 9 23.8141 9 22.3462V12.6538C9 12.4513 9.12056 12.2687 9.30531 12.1915L18.7178 8.26C18.7181 8.25986 18.7184 8.25972 18.7187 8.25959ZM18.9074 8.72154L19.0953 9.18384L9.98634 12.9886V22.3462C9.98634 23.4751 10.5607 24.6472 11.5133 25.8033C12.4603 26.9524 13.7359 28.0308 15.0319 28.963C16.3249 29.8929 17.6207 30.665 18.5949 31.2052C19.0815 31.4749 19.4866 31.6862 19.7692 31.8296C19.859 31.8751 19.9363 31.9138 20 31.9453C20.0637 31.9138 20.141 31.8751 20.2308 31.8296C20.5134 31.6862 20.9185 31.4749 21.4051 31.2052C22.3793 30.665 23.6751 29.8929 24.9681 28.963C26.2641 28.0308 27.5397 26.9524 28.4867 25.8033C29.4393 24.6472 30.0137 23.4751 30.0137 22.3462V12.9886L20.9047 9.18384L20.9029 9.18308C20.6168 9.06222 20.3099 9 20 9C19.6901 9 19.3832 9.06222 19.0971 9.18308L18.9074 8.72154ZM20 32.5L19.7915 32.9531C19.9235 33.0154 20.077 33.0152 20.209 32.9529L20 32.5Z" fill="#212121"/>
<path fill-rule="evenodd" clip-rule="evenodd" d="M25.6233 16.6464C25.8159 16.8417 25.8159 17.1583 25.6233 17.3536L18.8633 24.2071L14.5693 19.8536C14.3767 19.6583 14.3767 19.3417 14.5693 19.1464C14.7618 18.9512 15.0741 18.9512 15.2667 19.1464L18.8633 22.7929L24.9259 16.6464C25.1184 16.4512 25.4307 16.4512 25.6233 16.6464Z" fill="#212121"/>
<defs>
<linearGradient id="paint0_linear_627_393" x1="10" y1="19.9947" x2="42.0007" y2="35.9998" gradientUnits="userSpaceOnUse">
<stop stop-color="#FFE2AE"/>
<stop offset="1" stop-color="#CCA04A"/>
</linearGradient>
</defs>
</svg>
