<svg width="25" height="25" viewBox="0 0 25 25" fill="none" xmlns="http://www.w3.org/2000/svg">
<rect x="0.5" y="0.5" width="24" height="24" rx="12" fill="#212121" stroke="url(#paint0_linear_627_345)"/>
<path d="M18.6217 6.34604C18.2082 5.9659 16.5343 4.74878 12.8029 4.73211C12.8029 4.73211 8.40464 4.46535 6.26052 6.43273C5.06675 7.6265 4.6466 9.37047 4.60325 11.5379C4.5599 13.7021 4.50321 17.7602 8.41464 18.8606H8.41797L8.41464 20.5379C8.41464 20.5379 8.3913 21.2181 8.83813 21.3549C9.37833 21.5216 9.69844 21.0047 10.2153 20.4479C10.4987 20.1411 10.8889 19.6943 11.1857 19.3508C13.86 19.5742 15.9174 19.0607 16.1508 18.984C16.691 18.8073 19.7488 18.4171 20.2456 14.359C20.7592 10.1841 19.9955 7.5398 18.6217 6.34604ZM19.0752 14.0655C18.6551 17.4534 16.1775 17.6668 15.7206 17.8136C15.5272 17.8769 13.7199 18.3271 11.4457 18.177C11.4457 18.177 9.7518 20.2211 9.22494 20.7513C9.14157 20.8347 9.04487 20.868 8.98151 20.8513C8.89148 20.828 8.8648 20.7213 8.86814 20.5646C8.86814 20.3378 8.88148 17.7735 8.88148 17.7735C8.87814 17.7735 8.87814 17.7735 8.88148 17.7735C5.57027 16.8565 5.76367 13.4019 5.80035 11.5946C5.83703 9.78729 6.17716 8.30342 7.18752 7.30639C8.99819 5.66579 12.7362 5.90921 12.7362 5.90921C15.8907 5.92255 17.4013 6.87289 17.7514 7.18968C18.9151 8.19004 19.5087 10.5742 19.0752 14.0655Z" fill="url(#paint1_linear_627_345)"/>
<path d="M14.34 11.6578C14.23 11.6578 14.1366 11.5711 14.1299 11.4577C14.0933 10.7408 13.7565 10.3907 13.0696 10.354C12.9529 10.3473 12.8628 10.2473 12.8695 10.1306C12.8762 10.0139 12.9762 9.92385 13.0929 9.93052C13.9999 9.98054 14.5068 10.5007 14.5534 11.4344C14.5601 11.5511 14.4701 11.6512 14.3534 11.6545C14.3467 11.6578 14.3434 11.6578 14.34 11.6578Z" fill="url(#paint2_linear_627_345)"/>
<path d="M15.4204 12.0179H15.4171C15.3004 12.0146 15.207 11.9179 15.2103 11.8012C15.227 11.0809 15.0203 10.4974 14.5801 10.0172C14.1433 9.53704 13.5397 9.27694 12.7428 9.22026C12.6261 9.21025 12.5394 9.11022 12.5494 8.99351C12.5594 8.8768 12.6594 8.7901 12.7761 8.8001C13.6764 8.86679 14.3867 9.18024 14.8936 9.73378C15.4037 10.2906 15.6505 10.9876 15.6338 11.8112C15.6305 11.9279 15.5338 12.0179 15.4204 12.0179Z" fill="url(#paint3_linear_627_345)"/>
<path d="M16.5275 12.4512C16.4108 12.4512 16.3174 12.3578 16.3174 12.2411C16.3074 10.9507 15.9373 9.96696 15.1837 9.23002C14.4401 8.50309 13.4964 8.13295 12.386 8.12295C12.2693 8.12295 12.1759 8.02625 12.1759 7.90954C12.1759 7.79283 12.2726 7.69946 12.386 7.69946C13.6098 7.70947 14.6501 8.11962 15.4738 8.92658C16.3007 9.73354 16.7242 10.8473 16.7376 12.2345C16.7409 12.3545 16.6475 12.4512 16.5275 12.4512C16.5308 12.4512 16.5308 12.4512 16.5275 12.4512Z" fill="url(#paint4_linear_627_345)"/>
<path d="M13.1196 14.2685C13.1196 14.2685 13.4164 14.2952 13.5765 14.0985L13.8866 13.7083C14.0366 13.5149 14.4001 13.3916 14.7536 13.5883C14.9503 13.6983 15.3071 13.9184 15.5272 14.0818C15.7639 14.2552 16.2441 14.6553 16.2475 14.6587C16.4775 14.8521 16.5309 15.1355 16.3742 15.439C16.3742 15.439 16.3742 15.4423 16.3742 15.4456C16.2141 15.7291 15.9974 15.9958 15.7273 16.2426C15.7239 16.2426 15.7239 16.2459 15.7206 16.2459C15.4972 16.4327 15.2771 16.5394 15.0637 16.5627C15.037 16.5694 15.007 16.5694 14.967 16.5694C14.8736 16.5694 14.7802 16.556 14.6869 16.526L14.6802 16.516C14.3468 16.4227 13.7932 16.1892 12.8729 15.6791C12.2727 15.3489 11.7758 15.0121 11.3523 14.6754C11.1289 14.4986 10.9022 14.3019 10.6687 14.0685C10.6621 14.0618 10.6521 14.0518 10.6454 14.0451C10.6387 14.0385 10.6287 14.0285 10.6221 14.0218C10.6154 14.0151 10.6054 14.0051 10.5987 13.9984C10.5921 13.9918 10.582 13.9818 10.5754 13.9751C10.3453 13.7417 10.1452 13.5149 9.96849 13.2915C9.6317 12.8714 9.29491 12.3712 8.96479 11.771C8.4546 10.8473 8.22118 10.2938 8.12782 9.96363L8.11781 9.95696C8.0878 9.8636 8.07446 9.77023 8.07446 9.67686C8.07446 9.63685 8.07446 9.60684 8.08113 9.58016C8.10781 9.36341 8.21451 9.14667 8.39791 8.92325C8.39791 8.91992 8.40125 8.91992 8.40125 8.91658C8.64801 8.64315 8.91477 8.42974 9.19821 8.26968C9.19821 8.26968 9.20154 8.26968 9.20488 8.26968C9.50499 8.11296 9.78842 8.16631 9.98516 8.39639C9.98516 8.39639 10.3886 8.8799 10.562 9.11666C10.7254 9.34007 10.9455 9.69353 11.0556 9.89027C11.2523 10.2437 11.1289 10.6072 10.9355 10.7573L10.5454 11.0674C10.3486 11.2274 10.3753 11.5242 10.3753 11.5242C10.3753 11.5242 10.9522 13.7183 13.1196 14.2685Z" fill="url(#paint5_linear_627_345)"/>
<defs>
<linearGradient id="paint0_linear_627_345" x1="6.25" y1="12.4967" x2="26.2504" y2="22.4999" gradientUnits="userSpaceOnUse">
<stop stop-color="#FFE2AE"/>
<stop offset="1" stop-color="#CCA04A"/>
</linearGradient>
<linearGradient id="paint1_linear_627_345" x1="8.54691" y1="13.0511" x2="21.4552" y2="19.1763" gradientUnits="userSpaceOnUse">
<stop stop-color="#FFE2AE"/>
<stop offset="1" stop-color="#CCA04A"/>
</linearGradient>
<linearGradient id="paint2_linear_627_345" x1="13.2903" y1="10.7938" x2="14.6514" y2="11.4576" gradientUnits="userSpaceOnUse">
<stop stop-color="#FFE2AE"/>
<stop offset="1" stop-color="#CCA04A"/>
</linearGradient>
<linearGradient id="paint3_linear_627_345" x1="13.3201" y1="10.4082" x2="15.8295" y2="11.6116" gradientUnits="userSpaceOnUse">
<stop stop-color="#FFE2AE"/>
<stop offset="1" stop-color="#CCA04A"/>
</linearGradient>
<linearGradient id="paint4_linear_627_345" x1="13.3163" y1="10.0747" x2="17.024" y2="11.8549" gradientUnits="userSpaceOnUse">
<stop stop-color="#FFE2AE"/>
<stop offset="1" stop-color="#CCA04A"/>
</linearGradient>
<linearGradient id="paint5_linear_627_345" x1="10.1718" y1="12.3737" x2="16.8833" y2="15.7304" gradientUnits="userSpaceOnUse">
<stop stop-color="#FFE2AE"/>
<stop offset="1" stop-color="#CCA04A"/>
</linearGradient>
</defs>
</svg>
