<svg width="40" height="40" viewBox="0 0 40 40" fill="none" xmlns="http://www.w3.org/2000/svg">
<rect width="40" height="40" rx="20" fill="url(#paint0_linear_627_374)"/>
<path fill-rule="evenodd" clip-rule="evenodd" d="M10.9857 14.748C10.8088 14.748 10.6392 14.8176 10.5141 14.9415C10.389 15.0654 10.3187 15.2334 10.3187 15.4086V19.5624C10.3187 19.842 10.0898 20.0687 9.80741 20.0687C9.52504 20.0687 9.29614 19.842 9.29614 19.5624V15.4086C9.29614 14.9649 9.47415 14.5393 9.79101 14.2255C10.1079 13.9118 10.5376 13.7355 10.9857 13.7355H30.3104C30.7585 13.7355 31.1882 13.9118 31.5051 14.2255C31.822 14.5393 32 14.9649 32 15.4086V28.8269C32 29.2706 31.822 29.6962 31.5051 30.0099C31.1882 30.3237 30.7585 30.5 30.3104 30.5H10.9857C10.5376 30.5 10.1079 30.3237 9.79101 30.0099C9.47415 29.6962 9.29614 29.2706 9.29614 28.8269V24.6672C9.29614 24.3876 9.52504 24.161 9.80741 24.161C10.0898 24.161 10.3187 24.3876 10.3187 24.6672V28.8269C10.3187 29.0021 10.389 29.1701 10.5141 29.294C10.6392 29.4178 10.8088 29.4874 10.9857 29.4874H30.3104C30.4873 29.4874 30.657 29.4178 30.7821 29.294C30.9072 29.1701 30.9774 29.0021 30.9774 28.8269V15.4086C30.9774 15.2334 30.9072 15.0654 30.7821 14.9415C30.657 14.8176 30.4873 14.748 30.3104 14.748H10.9857Z" fill="#212121"/>
<path fill-rule="evenodd" clip-rule="evenodd" d="M9.10043 20.0687C9.07977 20.0687 9.05996 20.0768 9.04535 20.0913C9.03074 20.1058 9.02253 20.1254 9.02253 20.1459V24.0838C9.02253 24.1043 9.03074 24.1239 9.04535 24.1384C9.05996 24.1529 9.07977 24.161 9.10043 24.161H15.8758C16.0528 24.161 16.2224 24.0914 16.3475 23.9675C16.4726 23.8436 16.5429 23.6756 16.5429 23.5004V20.7293C16.5429 20.5541 16.4726 20.3861 16.3475 20.2622C16.2224 20.1383 16.0528 20.0687 15.8758 20.0687H9.10043ZM8.32231 19.3753C8.52868 19.171 8.80858 19.0562 9.10043 19.0562H15.8758C16.3239 19.0562 16.7537 19.2325 17.0706 19.5462C17.3874 19.86 17.5654 20.2855 17.5654 20.7293V23.5004C17.5654 23.9442 17.3874 24.3697 17.0706 24.6835C16.7537 24.9972 16.3239 25.1735 15.8758 25.1735H9.10043C8.80858 25.1735 8.52868 25.0587 8.32231 24.8544C8.11594 24.65 8 24.3728 8 24.0838V20.1459C8 19.8569 8.11594 19.5797 8.32231 19.3753Z" fill="#212121"/>
<path fill-rule="evenodd" clip-rule="evenodd" d="M14.3971 21.4572C14.0287 21.4572 13.7301 21.7529 13.7301 22.1178C13.7301 22.4826 14.0287 22.7783 14.3971 22.7783C14.7655 22.7783 15.0642 22.4826 15.0642 22.1178C15.0642 21.7529 14.7655 21.4572 14.3971 21.4572ZM12.7075 22.1178C12.7075 21.1937 13.464 20.4447 14.3971 20.4447C15.3303 20.4447 16.0867 21.1937 16.0867 22.1178C16.0867 23.0418 15.3303 23.7908 14.3971 23.7908C13.464 23.7908 12.7075 23.0418 12.7075 22.1178Z" fill="#212121"/>
<path fill-rule="evenodd" clip-rule="evenodd" d="M13.3849 9.56253C13.5038 9.49787 13.6437 9.48264 13.774 9.52019L28.4619 13.7557C28.733 13.8339 28.8887 14.1149 28.8098 14.3833C28.7308 14.6518 28.4471 14.806 28.176 14.7279L13.9792 10.634L12.8788 14.3831C12.8 14.6516 12.5163 14.806 12.2452 14.7279C11.974 14.6499 11.8181 14.369 11.8969 14.1005L13.1401 9.86498C13.1779 9.736 13.266 9.6272 13.3849 9.56253Z" fill="#212121"/>
<defs>
<linearGradient id="paint0_linear_627_374" x1="10" y1="19.9947" x2="42.0007" y2="35.9998" gradientUnits="userSpaceOnUse">
<stop stop-color="#FFE2AE"/>
<stop offset="1" stop-color="#CCA04A"/>
</linearGradient>
</defs>
</svg>
