<svg width="40" height="40" viewBox="0 0 40 40" fill="none" xmlns="http://www.w3.org/2000/svg">
<rect width="40" height="40" rx="20" fill="url(#paint0_linear_627_418)"/>
<path d="M22.8334 23.2483C22.781 23.241 22.7276 23.2469 22.6779 23.2655C22.6281 23.284 22.5836 23.3147 22.5481 23.3549C22.5119 23.3944 22.4854 23.4421 22.4707 23.4941C22.456 23.546 22.4535 23.6008 22.4635 23.654C22.6488 24.6509 23.2725 26.0191 25.1875 26.8709C25.4144 26.9713 25.7649 27.0497 26.2094 27.148C27.8732 27.5165 30.6557 28.1339 31.3392 30.7452C31.3507 30.7888 31.3704 30.8297 31.3973 30.8656C31.4242 30.9014 31.4577 30.9315 31.496 30.954C31.5342 30.9766 31.5765 30.9912 31.6202 30.9971C31.664 31.003 31.7085 30.9999 31.7511 30.9882C31.7938 30.9765 31.8337 30.9562 31.8687 30.9287C31.9037 30.9011 31.9331 30.8668 31.9551 30.8276C31.9771 30.7885 31.9914 30.7452 31.9972 30.7004C32.0029 30.6556 31.9999 30.6101 31.9885 30.5664C31.1982 27.5502 28.0458 26.851 26.3518 26.4756C25.9596 26.3883 25.6206 26.3133 25.4547 26.2391C24.3039 25.7276 23.5606 24.9685 23.2383 23.9799C26.4357 24.2233 27.8833 22.919 27.9471 22.8599C27.9864 22.8234 28.0167 22.7779 28.0356 22.7271C28.0544 22.6764 28.0612 22.6217 28.0555 22.5677C28.0497 22.5137 28.0315 22.4619 28.0024 22.4165C27.9733 22.371 27.9341 22.3333 27.888 22.3064C26.0429 21.227 26.0429 17.4972 26.0429 16.0925C26.0429 12.1647 23.4592 9.05088 20.147 9.00206C20.1155 9.00099 20.0839 9.0003 20.0523 9H20.0517C16.6911 9.01925 13.957 12.1365 13.957 15.9495C13.957 17.3542 13.957 21.0847 12.1119 22.1634C12.0643 22.1917 12.0243 22.2315 11.9951 22.2792C11.966 22.327 11.9487 22.3813 11.9447 22.4375C11.9407 22.4937 11.9502 22.55 11.9723 22.6016C11.9944 22.6531 12.0285 22.6984 12.0716 22.7334C12.1643 22.8069 14.2122 24.4116 16.7321 23.9242C16.395 24.8716 15.6618 25.6004 14.5445 26.0975C14.3827 26.1697 14.0604 26.2487 13.6871 26.3395C11.9817 26.7547 8.80642 27.5282 8.01144 30.5657C8.00002 30.6094 7.99711 30.6549 8.00288 30.6997C8.00865 30.7445 8.02297 30.7877 8.04504 30.8268C8.08962 30.9059 8.16303 30.9635 8.24913 30.9872C8.33523 31.0108 8.42697 30.9984 8.50415 30.9528C8.58134 30.9071 8.63766 30.8319 8.66072 30.7438C9.35163 28.1009 12.1636 27.4168 13.8429 27.0071C14.2639 26.9046 14.5962 26.8235 14.8124 26.7279C16.7274 25.8761 17.3505 24.5079 17.5365 23.511C17.5475 23.4526 17.5434 23.3922 17.5247 23.3359C17.506 23.2796 17.4732 23.2293 17.4297 23.1899C17.3865 23.1502 17.3339 23.1227 17.2771 23.1102C17.2204 23.0976 17.1614 23.1005 17.1061 23.1184C15.2885 23.7042 13.6092 22.8984 12.8753 22.4515C14.6285 20.9486 14.6285 17.4896 14.6285 15.9495C14.6285 12.514 17.0631 9.70472 20.0805 9.68615L20.1517 9.69028C23.1275 9.73359 25.3715 12.4858 25.3715 16.0925C25.3715 17.6333 25.3715 21.0998 27.132 22.6028C26.5257 22.9575 25.1432 23.5316 22.8334 23.2483Z" fill="#212121"/>
<defs>
<linearGradient id="paint0_linear_627_418" x1="10" y1="19.9947" x2="42.0007" y2="35.9998" gradientUnits="userSpaceOnUse">
<stop stop-color="#FFE2AE"/>
<stop offset="1" stop-color="#CCA04A"/>
</linearGradient>
</defs>
</svg>
