<svg width="40" height="40" viewBox="0 0 40 40" fill="none" xmlns="http://www.w3.org/2000/svg">
<rect width="40" height="40" rx="20" fill="url(#paint0_linear_627_413)"/>
<path d="M31.7969 19.2501C31.3869 18.6253 27.7773 13.0768 24.8173 12.1792C24.4325 12.0604 24.0033 12 23.5409 12C22.5605 12 21.4145 12.2704 20.1345 12.8033L20.0005 12.8546H19.9997L19.8657 12.8033C18.5861 12.2704 17.4401 12 16.4593 12C15.9969 12 15.5677 12.0604 15.1829 12.1796C12.2228 13.0772 8.61283 18.6257 8.20323 19.2505C7.89922 19.7139 7.95082 19.9311 8.26123 20.3566C8.62683 20.8571 8.93643 21.3943 9.24003 21.9797C10.4616 24.3328 11.8456 27 19.9997 27H20.0005C28.1545 27 29.5385 24.3328 30.7597 21.9793C31.0641 21.3939 31.3733 20.8563 31.7389 20.3562C32.0489 19.9307 32.1009 19.7136 31.7969 19.2501ZM20.0005 26.0625C20.0001 26.0625 20.0001 26.0625 20.0005 26.0625H19.9997C11.4308 26.0625 11.0124 23.1541 9.59683 20.6949C10.172 20.6368 10.7568 20.4462 11.374 20.1821C13.6412 22.0109 16.2685 21.1093 19.9993 21.1093H20.0005C23.7313 21.1093 26.3585 22.0109 28.6257 20.1821C29.2429 20.4462 29.8277 20.6364 30.4029 20.6949C28.9877 23.1541 28.5693 26.0625 20.0005 26.0625ZM13.6252 19.1096C15.3065 18.3118 17.3525 17.5014 20.0001 17.5014H20.0005C22.6477 17.5014 24.6937 18.3118 26.3753 19.1096H13.6252ZM30.7549 19.7791C28.4813 19.7791 25.4721 16.5636 20.0005 16.5636H19.9997C14.528 16.5636 11.5188 19.7791 9.24523 19.7791C9.15363 19.7791 9.06243 19.7739 8.97243 19.7629C8.97243 19.7629 12.7224 13.9034 15.4481 13.0768C15.7421 12.9861 16.0785 12.9375 16.4589 12.9375C17.2801 12.9375 18.3041 13.1641 19.5325 13.6772C19.6857 13.7353 19.8425 13.7976 19.9993 13.8647H20.0001C20.1569 13.7976 20.3137 13.7353 20.4669 13.6772C21.6949 13.1641 22.7193 12.9375 23.5405 12.9375C23.9209 12.9375 24.2573 12.9861 24.5513 13.0768C27.2769 13.9038 31.0269 19.7629 31.0269 19.7629C30.9367 19.7739 30.8458 19.7793 30.7549 19.7791Z" fill="#212121"/>
<defs>
<linearGradient id="paint0_linear_627_413" x1="10" y1="19.9947" x2="42.0007" y2="35.9998" gradientUnits="userSpaceOnUse">
<stop stop-color="#FFE2AE"/>
<stop offset="1" stop-color="#CCA04A"/>
</linearGradient>
</defs>
</svg>
