<svg width="40" height="40" viewBox="0 0 40 40" fill="none" xmlns="http://www.w3.org/2000/svg">
<rect width="40" height="40" rx="20" fill="url(#paint0_linear_627_401)"/>
<path fill-rule="evenodd" clip-rule="evenodd" d="M20 31C26.0751 31 31 26.0751 31 20C31 13.9249 26.0751 9 20 9C13.9249 9 9 13.9249 9 20C9 26.0751 13.9249 31 20 31ZM20 32C26.6274 32 32 26.6274 32 20C32 13.3726 26.6274 8 20 8C13.3726 8 8 13.3726 8 20C8 26.6274 13.3726 32 20 32Z" fill="#212121"/>
<path fill-rule="evenodd" clip-rule="evenodd" d="M20.0001 19.1046C19.5056 19.1046 19.1047 19.5055 19.1047 20C19.1047 20.4945 19.5056 20.8953 20.0001 20.8953C20.4946 20.8953 20.8954 20.4945 20.8954 20C20.8954 19.5055 20.4946 19.1046 20.0001 19.1046ZM18.1047 20C18.1047 18.9532 18.9533 18.1046 20.0001 18.1046C21.0469 18.1046 21.8954 18.9532 21.8954 20C21.8954 21.0468 21.0469 21.8953 20.0001 21.8953C18.9533 21.8953 18.1047 21.0468 18.1047 20Z" fill="#212121"/>
<path fill-rule="evenodd" clip-rule="evenodd" d="M20 12.4897C20.2761 12.4897 20.5 12.7136 20.5 12.9897V18.6046C20.5 18.8808 20.2761 19.1046 20 19.1046C19.7239 19.1046 19.5 18.8808 19.5 18.6046V12.9897C19.5 12.7136 19.7239 12.4897 20 12.4897ZM20.7508 20.4841C20.8996 20.2515 21.2088 20.1834 21.4414 20.3322L28.2507 24.6857C28.4834 24.8344 28.5514 25.1436 28.4027 25.3763C28.2539 25.6089 27.9447 25.677 27.7121 25.5282L20.9028 21.1747C20.6701 21.026 20.6021 20.7168 20.7508 20.4841Z" fill="#212121"/>
<defs>
<linearGradient id="paint0_linear_627_401" x1="10" y1="19.9947" x2="42.0007" y2="35.9998" gradientUnits="userSpaceOnUse">
<stop stop-color="#FFE2AE"/>
<stop offset="1" stop-color="#CCA04A"/>
</linearGradient>
</defs>
</svg>
