<svg width="25" height="25" viewBox="0 0 25 25" fill="none" xmlns="http://www.w3.org/2000/svg">
<rect x="0.5" y="0.5" width="24" height="24" rx="12" fill="#212121" stroke="url(#paint0_linear_627_362)"/>
<path d="M16.9712 7.89796L16.9712 7.89799C18.0497 9.41311 18.2947 11.324 17.6376 13.0108L17.6363 13.0142C17.4703 13.4494 17.1999 13.8872 16.8243 14.3098L16.8222 14.3123L12.2855 19.4857L12.2854 19.4859C12.2795 19.4926 12.2672 19.5 12.2502 19.5C12.2333 19.5 12.2209 19.4926 12.215 19.4859L12.2148 19.4857L7.67694 14.3109L7.67695 14.3109L7.67453 14.3082C7.30119 13.8886 7.03029 13.4504 6.86257 13.0108L6.86258 13.0108L6.86132 13.0075C6.2057 11.3241 6.4506 9.41325 7.52917 7.89799L7.52918 7.89796C8.61244 6.37588 10.3282 5.5 12.2502 5.5C14.1722 5.5 15.8879 6.37588 16.9712 7.89796ZM12.6261 18.9963L16.7489 14.295L16.7531 14.2903C17.111 13.8875 17.3862 13.456 17.5584 13.0048C18.2159 11.3151 17.9637 9.4131 16.897 7.91459C15.8258 6.40936 14.1269 5.54895 12.2502 5.54895C10.3734 5.54895 8.67435 6.40938 7.60313 7.91463C6.53674 9.41299 6.28457 11.315 6.94067 13.0013C7.11409 13.4554 7.38872 13.8865 7.74622 14.289C7.7466 14.2894 7.74698 14.2898 7.74735 14.2902L11.8743 18.9963L12.2502 19.425L12.6261 18.9963ZM16.7275 14.317L16.7289 14.3157L16.7275 14.317Z" stroke="url(#paint1_linear_627_362)"/>
<path d="M9.72473 11.0489C9.72473 9.7193 10.844 8.61182 12.25 8.61182C13.6559 8.61182 14.7753 9.71946 14.7753 11.0489C14.7753 12.3785 13.6561 13.486 12.25 13.486C10.8439 13.486 9.72473 12.3785 9.72473 11.0489ZM9.80517 11.0489C9.80517 12.3799 10.9155 13.437 12.25 13.437C13.5844 13.437 14.6948 12.3799 14.6948 11.0489C14.6948 9.71778 13.5844 8.66073 12.25 8.66073C10.9155 8.66073 9.80517 9.71778 9.80517 11.0489Z" stroke="url(#paint2_linear_627_362)"/>
<defs>
<linearGradient id="paint0_linear_627_362" x1="6.25" y1="12.4967" x2="26.2504" y2="22.4999" gradientUnits="userSpaceOnUse">
<stop stop-color="#FFE2AE"/>
<stop offset="1" stop-color="#CCA04A"/>
</linearGradient>
<linearGradient id="paint1_linear_627_362" x1="9.125" y1="12.498" x2="19.7765" y2="16.9374" gradientUnits="userSpaceOnUse">
<stop stop-color="#FFE2AE"/>
<stop offset="1" stop-color="#CCA04A"/>
</linearGradient>
<linearGradient id="paint2_linear_627_362" x1="10.7374" y1="11.0481" x2="15.5196" y2="13.5117" gradientUnits="userSpaceOnUse">
<stop stop-color="#FFE2AE"/>
<stop offset="1" stop-color="#CCA04A"/>
</linearGradient>
</defs>
</svg>
