<svg width="25" height="25" viewBox="0 0 25 25" fill="none" xmlns="http://www.w3.org/2000/svg">
<rect x="0.5" y="0.5" width="24" height="24" rx="12" fill="#212121" stroke="url(#paint0_linear_627_331)"/>
<path fill-rule="evenodd" clip-rule="evenodd" d="M20.4509 8.61162C20.5668 8.22533 20.4509 7.94141 19.8995 7.94141H18.0761C17.6125 7.94141 17.3989 8.18665 17.283 8.45715C17.283 8.45715 16.3557 10.7172 15.0421 12.1852C14.6171 12.6102 14.424 12.7453 14.1921 12.7453C14.0762 12.7453 13.9085 12.6102 13.9085 12.2239V8.61162C13.9085 8.14797 13.7739 7.94141 13.3875 7.94141H10.5223C10.2326 7.94141 10.0584 8.15656 10.0584 8.36051C10.0584 8.80007 10.715 8.9014 10.7828 10.1376V12.8228C10.7828 13.4114 10.6765 13.5182 10.4447 13.5182C9.82654 13.5182 8.32306 11.2479 7.43119 8.6503C7.25641 8.14536 7.08111 7.94141 6.61511 7.94141H4.79177C4.27082 7.94141 4.16663 8.18665 4.16663 8.45715C4.16663 8.94008 4.78487 11.3354 7.0449 14.5034C8.55176 16.6666 10.6744 17.8396 12.6061 17.8396C13.7652 17.8396 13.9085 17.5791 13.9085 17.1304V15.4953C13.9085 14.9743 14.0183 14.8704 14.3852 14.8704C14.6558 14.8704 15.1193 15.0056 16.2012 16.0486C17.4374 17.2847 17.6411 17.8396 18.3366 17.8396H20.1599C20.6809 17.8396 20.9414 17.5791 20.7911 17.065C20.6267 16.5527 20.0365 15.8095 19.2532 14.9283C18.8283 14.426 18.1907 13.8851 17.9977 13.6147C17.7272 13.267 17.8044 13.1125 17.9977 12.8036C17.9977 12.8036 20.2191 9.67423 20.4509 8.61175V8.61162Z" fill="url(#paint1_linear_627_331)"/>
<defs>
<linearGradient id="paint0_linear_627_331" x1="6.25" y1="12.4967" x2="26.2504" y2="22.4999" gradientUnits="userSpaceOnUse">
<stop stop-color="#FFE2AE"/>
<stop offset="1" stop-color="#CCA04A"/>
</linearGradient>
<linearGradient id="paint1_linear_627_331" x1="8.33329" y1="12.8892" x2="18.0856" y2="21.1022" gradientUnits="userSpaceOnUse">
<stop stop-color="#FFE2AE"/>
<stop offset="1" stop-color="#CCA04A"/>
</linearGradient>
</defs>
</svg>
