<svg width="25" height="25" viewBox="0 0 25 25" fill="none" xmlns="http://www.w3.org/2000/svg">
<rect x="0.5" y="0.5" width="24" height="24" rx="12" fill="#212121" stroke="url(#paint0_linear_627_337)"/>
<path fill-rule="evenodd" clip-rule="evenodd" d="M15.2789 18.6896C16.1526 19.0719 16.4803 18.271 16.4803 18.271L18.792 6.65802C18.7737 5.87532 17.718 6.34858 17.718 6.34858L4.7763 11.427C4.7763 11.427 4.15742 11.6454 4.21203 12.0277C4.26664 12.4099 4.75809 12.5919 4.75809 12.5919L8.01628 13.684C8.01628 13.684 8.9992 16.9058 9.19942 17.5247C9.38144 18.1254 9.54526 18.1436 9.54526 18.1436C9.72728 18.2164 9.8911 18.089 9.8911 18.089L12.0025 16.1777L15.2789 18.6896ZM15.8432 8.71485C15.8432 8.71485 16.2983 8.44182 16.2801 8.71485C16.2801 8.71485 16.3529 8.75126 16.1162 9.00609C15.8978 9.22451 10.7466 13.8479 10.0549 14.4667C10.0003 14.5031 9.96391 14.5577 9.96391 14.6306L9.76369 16.3416C9.72728 16.5236 9.49065 16.5418 9.43605 16.378L8.58055 13.5748C8.54414 13.4656 8.58055 13.3382 8.68976 13.2654L15.8432 8.71485Z" fill="url(#paint1_linear_627_337)"/>
<defs>
<linearGradient id="paint0_linear_627_337" x1="6.25" y1="12.4967" x2="26.2504" y2="22.4999" gradientUnits="userSpaceOnUse">
<stop stop-color="#FFE2AE"/>
<stop offset="1" stop-color="#CCA04A"/>
</linearGradient>
<linearGradient id="paint1_linear_627_337" x1="7.85445" y1="12.4982" x2="18.773" y2="18.8256" gradientUnits="userSpaceOnUse">
<stop stop-color="#FFE2AE"/>
<stop offset="1" stop-color="#CCA04A"/>
</linearGradient>
</defs>
</svg>
