<svg width="43" height="43" viewBox="0 0 43 43" fill="none" xmlns="http://www.w3.org/2000/svg">
<path d="M21.5 43C33.3741 43 43 33.3741 43 21.5C43 9.62588 33.3741 0 21.5 0C9.62588 0 0 9.62588 0 21.5C0 33.3741 9.62588 43 21.5 43Z" fill="url(#paint0_linear_627_312)"/>
<path fill-rule="evenodd" clip-rule="evenodd" d="M21.5002 5.15942C18.2684 5.15942 15.1092 6.11783 12.4222 7.91329C9.73501 9.70874 7.64065 12.2606 6.40397 15.2464C5.16721 18.2321 4.84366 21.5175 5.47414 24.6872C6.10461 27.8568 7.66086 30.7684 9.94605 33.0536C12.2312 35.3388 15.1428 36.8949 18.3125 37.5253C21.4821 38.1559 24.7675 37.8323 27.7533 36.5956C30.739 35.3588 33.2909 33.2645 35.0864 30.5774C36.8819 27.8903 37.8402 24.7311 37.8402 21.4994C37.8402 17.1658 36.1186 13.0096 33.0543 9.94524C29.9899 6.88091 25.8338 5.15942 21.5002 5.15942ZM21.5002 36.4212C18.6111 36.422 15.7839 35.5837 13.3621 34.0085C10.9403 32.4331 9.02801 30.1885 7.85755 27.5471C6.68709 24.9058 6.30877 21.9813 6.76861 19.129C7.22837 16.2767 8.5065 13.6194 10.4478 11.4796L31.5198 32.5517C28.7797 35.0465 25.2059 36.4267 21.5002 36.4212ZM32.5526 31.5192L11.4806 10.4471C14.3178 7.8727 18.0367 6.48855 21.8667 6.58151C25.6967 6.67448 29.3442 8.23737 32.0532 10.9464C34.7622 13.6554 36.3252 17.3029 36.4181 21.1329C36.5111 24.9629 35.127 28.6819 32.5526 31.5192ZM29.0296 12.349H24.1473V14.1988H26.3369L24.2583 16.2837C23.4595 15.6747 22.5128 15.2896 21.5157 15.1678C20.5186 15.0461 19.5071 15.192 18.5852 15.5909L20.0099 17.0287C20.2664 16.9797 20.5267 16.9535 20.7878 16.9504C21.8153 16.9566 22.8015 17.3565 23.5432 18.0677C24.2848 18.779 24.7256 19.7474 24.7747 20.7738C24.7901 21.0958 24.7659 21.4187 24.7029 21.7348L26.1081 23.1465C26.4876 22.2785 26.6421 21.3287 26.5576 20.3851C26.4731 19.4415 26.1521 18.5346 25.6245 17.7478L27.7159 15.6366V17.7412H29.5133V12.6824C29.5133 12.3098 29.2715 12.349 29.0296 12.349ZM19.8531 26.7217V28.97H17.5393V30.6957H19.9184V33.0354H21.6374V30.6694H23.9642V28.9244H21.6374V26.7348C22.1054 26.6347 22.5629 26.4903 23.0035 26.3035L21.5983 24.8916C21.3417 24.938 21.0808 24.9556 20.8204 24.9439C20.3045 24.9586 19.7909 24.8715 19.3086 24.6876C18.8264 24.5037 18.3851 24.2267 18.0101 23.8722C17.635 23.5178 17.3333 23.0929 17.1224 22.6218C16.9116 22.1508 16.7957 21.6427 16.7812 21.1268C16.7747 21.0398 16.7747 20.9525 16.7812 20.8654C16.7873 20.6219 16.8135 20.3791 16.8597 20.1398L15.4151 18.6824C15.0883 19.4981 14.9468 20.3763 15.0009 21.2535C15.055 22.1307 15.3034 22.9848 15.7281 23.7542C16.1528 24.5235 16.7432 25.189 17.4567 25.7022C18.1701 26.2154 18.9886 26.5636 19.8531 26.7217Z" fill="#212121"/>
<defs>
<linearGradient id="paint0_linear_627_312" x1="10.75" y1="21.4943" x2="45.1508" y2="38.6998" gradientUnits="userSpaceOnUse">
<stop stop-color="#FFE2AE"/>
<stop offset="1" stop-color="#CCA04A"/>
</linearGradient>
</defs>
</svg>
