<svg width="40" height="40" viewBox="0 0 40 40" fill="none" xmlns="http://www.w3.org/2000/svg">
<rect width="40" height="40" rx="20" fill="url(#paint0_linear_627_429)"/>
<path fill-rule="evenodd" clip-rule="evenodd" d="M10.2656 10.5769C9.81885 10.5769 9.5 10.9153 9.5 11.2806V29.7963C9.5 30.1616 9.81885 30.5 10.2656 30.5H29.7344C30.1812 30.5 30.5 30.1616 30.5 29.7963V11.2806C30.5 10.9153 30.1812 10.5769 29.7344 10.5769H10.2656ZM8.5 11.2806C8.5 10.3163 9.31445 9.5769 10.2656 9.5769H29.7344C30.6855 9.5769 31.5 10.3163 31.5 11.2806V29.7963C31.5 30.7606 30.6855 31.5 29.7344 31.5H10.2656C9.31445 31.5 8.5 30.7606 8.5 29.7963V11.2806Z" fill="#212121"/>
<path fill-rule="evenodd" clip-rule="evenodd" d="M14.1765 7.5C13.8795 7.5 13.595 7.61757 13.3855 7.82626C13.1761 8.03489 13.0588 8.31747 13.0588 8.61172V9.57692H15.2941V8.61172C15.2941 8.31747 15.1768 8.03489 14.9674 7.82626C14.758 7.61757 14.4735 7.5 14.1765 7.5ZM12.6797 7.11786C13.077 6.72204 13.6154 6.5 14.1765 6.5C14.7375 6.5 15.2759 6.72204 15.6732 7.11786C16.0706 7.51374 16.2941 8.05106 16.2941 8.61172V10.0769C16.2941 10.3531 16.0703 10.5769 15.7941 10.5769H12.5588C12.2827 10.5769 12.0588 10.3531 12.0588 10.0769V8.61172C12.0588 8.05106 12.2824 7.51374 12.6797 7.11786ZM25.8235 7.5C25.5265 7.5 25.242 7.61757 25.0326 7.82626C24.8232 8.03489 24.7059 8.31747 24.7059 8.61172V10.0769C24.7059 10.3531 24.482 10.5769 24.2059 10.5769C23.9297 10.5769 23.7059 10.3531 23.7059 10.0769V8.61172C23.7059 8.05106 23.9294 7.51374 24.3268 7.11786C24.7241 6.72204 25.2625 6.5 25.8235 6.5C26.3846 6.5 26.923 6.72204 27.3203 7.11786C27.7176 7.51374 27.9412 8.05107 27.9412 8.61172V10.0769C27.9412 10.3531 27.7173 10.5769 27.4412 10.5769C27.165 10.5769 26.9412 10.3531 26.9412 10.0769V8.61172C26.9412 8.31747 26.8239 8.03489 26.6145 7.82626C26.405 7.61757 26.1205 7.5 25.8235 7.5ZM8.5 13.7692C8.5 13.4931 8.72386 13.2692 9 13.2692H31C31.2761 13.2692 31.5 13.4931 31.5 13.7692C31.5 14.0454 31.2761 14.2692 31 14.2692H9C8.72386 14.2692 8.5 14.0454 8.5 13.7692Z" fill="#212121"/>
<path fill-rule="evenodd" clip-rule="evenodd" d="M13.7143 18.5769C13.1125 18.5769 12.6428 19.0518 12.6428 19.6154C12.6428 20.179 13.1125 20.6538 13.7143 20.6538C14.316 20.6538 14.7857 20.179 14.7857 19.6154C14.7857 19.0518 14.316 18.5769 13.7143 18.5769ZM11.6428 19.6154C11.6428 18.4796 12.5803 17.5769 13.7143 17.5769C14.8482 17.5769 15.7857 18.4796 15.7857 19.6154C15.7857 20.7511 14.8482 21.6538 13.7143 21.6538C12.5803 21.6538 11.6428 20.7511 11.6428 19.6154Z" fill="#212121"/>
<path fill-rule="evenodd" clip-rule="evenodd" d="M13.7143 23.5C13.1125 23.5 12.6428 23.9749 12.6428 24.5385C12.6428 25.102 13.1125 25.5769 13.7143 25.5769C14.316 25.5769 14.7857 25.102 14.7857 24.5385C14.7857 23.9749 14.316 23.5 13.7143 23.5ZM11.6428 24.5385C11.6428 23.4027 12.5803 22.5 13.7143 22.5C14.8482 22.5 15.7857 23.4027 15.7857 24.5385C15.7857 25.6742 14.8482 26.5769 13.7143 26.5769C12.5803 26.5769 11.6428 25.6742 11.6428 24.5385Z" fill="#212121"/>
<path fill-rule="evenodd" clip-rule="evenodd" d="M19.9999 18.5769C19.3981 18.5769 18.9285 19.0518 18.9285 19.6154C18.9285 20.179 19.3981 20.6538 19.9999 20.6538C20.6017 20.6538 21.0713 20.179 21.0713 19.6154C21.0713 19.0518 20.6017 18.5769 19.9999 18.5769ZM17.9285 19.6154C17.9285 18.4796 18.8659 17.5769 19.9999 17.5769C21.1339 17.5769 22.0713 18.4796 22.0713 19.6154C22.0713 20.7511 21.1339 21.6538 19.9999 21.6538C18.8659 21.6538 17.9285 20.7511 17.9285 19.6154Z" fill="#212121"/>
<path fill-rule="evenodd" clip-rule="evenodd" d="M19.9999 23.5C19.3981 23.5 18.9285 23.9749 18.9285 24.5385C18.9285 25.102 19.3981 25.5769 19.9999 25.5769C20.6017 25.5769 21.0713 25.102 21.0713 24.5385C21.0713 23.9749 20.6017 23.5 19.9999 23.5ZM17.9285 24.5385C17.9285 23.4027 18.8659 22.5 19.9999 22.5C21.1339 22.5 22.0713 23.4027 22.0713 24.5385C22.0713 25.6742 21.1339 26.5769 19.9999 26.5769C18.8659 26.5769 17.9285 25.6742 17.9285 24.5385Z" fill="#212121"/>
<path fill-rule="evenodd" clip-rule="evenodd" d="M26.2858 18.5769C25.684 18.5769 25.2144 19.0518 25.2144 19.6154C25.2144 20.179 25.684 20.6538 26.2858 20.6538C26.8876 20.6538 27.3572 20.179 27.3572 19.6154C27.3572 19.0518 26.8876 18.5769 26.2858 18.5769ZM24.2144 19.6154C24.2144 18.4796 25.1518 17.5769 26.2858 17.5769C27.4198 17.5769 28.3572 18.4796 28.3572 19.6154C28.3572 20.7511 27.4198 21.6538 26.2858 21.6538C25.1518 21.6538 24.2144 20.7511 24.2144 19.6154Z" fill="#212121"/>
<path fill-rule="evenodd" clip-rule="evenodd" d="M26.2858 23.5C25.684 23.5 25.2144 23.9749 25.2144 24.5385C25.2144 25.102 25.684 25.5769 26.2858 25.5769C26.8876 25.5769 27.3572 25.102 27.3572 24.5385C27.3572 23.9749 26.8876 23.5 26.2858 23.5ZM24.2144 24.5385C24.2144 23.4027 25.1518 22.5 26.2858 22.5C27.4198 22.5 28.3572 23.4027 28.3572 24.5385C28.3572 25.6742 27.4198 26.5769 26.2858 26.5769C25.1518 26.5769 24.2144 25.6742 24.2144 24.5385Z" fill="#212121"/>
<defs>
<linearGradient id="paint0_linear_627_429" x1="10" y1="19.9947" x2="42.0007" y2="35.9998" gradientUnits="userSpaceOnUse">
<stop stop-color="#FFE2AE"/>
<stop offset="1" stop-color="#CCA04A"/>
</linearGradient>
</defs>
</svg>
